<?xml version="1.0" standalone="no"?>
<!DOCTYPE svg PUBLIC "-//W3C//DTD SVG 20010904//EN"
 "http://www.w3.org/TR/2001/REC-SVG-20010904/DTD/svg10.dtd">
<svg version="1.0" xmlns="http://www.w3.org/2000/svg"
 width="265.000000pt" height="265.000000pt" viewBox="0 0 265.000000 265.000000"
 preserveAspectRatio="xMidYMid meet">

<g transform="translate(0.000000,265.000000) scale(0.100000,-0.100000)"
fill="#000000" stroke="none">
<path d="M690 1907 c0 -9 9 -91 20 -184 10 -92 26 -235 34 -318 62 -619 66
-650 82 -661 38 -29 882 -19 912 10 1 2 14 133 28 291 13 159 35 386 48 504
14 119 27 249 31 289 l7 72 -474 0 c-261 0 -523 3 -581 7 -94 5 -107 4 -107
-10z m950 -152 c0 -8 -7 -15 -15 -15 -9 0 -15 -9 -15 -25 0 -14 -5 -25 -11
-25 -7 0 -9 9 -5 23 3 12 6 30 6 40 0 10 8 17 20 17 11 0 20 -7 20 -15z m60 6
c0 -17 -18 -21 -24 -6 -3 9 0 15 9 15 8 0 15 -4 15 -9z m-50 -101 c0 -5 -13
-10 -30 -10 -16 0 -30 5 -30 10 0 6 14 10 30 10 17 0 30 -4 30 -10z m15 -60
c-3 -5 -22 -10 -41 -10 -19 0 -34 5 -34 10 0 6 18 10 41 10 24 0 38 -4 34 -10z
m-35 -35 c-11 -13 -8 -15 14 -15 14 0 26 -4 26 -10 0 -5 -21 -10 -47 -10 l-46
0 23 25 c25 27 51 35 30 10z m96 -3 c0 -10 -6 -19 -13 -19 -8 0 -9 6 -2 19 5
10 11 18 12 18 2 0 3 -8 3 -18z m-10 -69 c-10 -10 -19 5 -10 18 6 11 8 11 12
0 2 -7 1 -15 -2 -18z m-57 -40 c-1 -17 -3 -21 -6 -10 -3 12 -15 17 -39 17 -19
0 -34 5 -34 10 0 6 18 10 40 10 37 0 40 -2 39 -27z m42 -16 c-10 -9 -11 -8 -5
6 3 10 9 15 12 12 3 -3 0 -11 -7 -18z m39 -7 c0 -5 -2 -10 -4 -10 -3 0 -8 5
-11 10 -3 6 -1 10 4 10 6 0 11 -4 11 -10z m30 -24 c0 -8 -7 -17 -16 -20 -8 -3
-12 -10 -9 -16 4 -6 11 -8 16 -5 5 3 6 -1 2 -11 -5 -14 -7 -15 -15 -1 -5 10
-15 14 -25 10 -10 -4 -14 -2 -10 4 4 6 0 13 -8 17 -8 3 -15 10 -15 16 0 6 7 4
16 -4 8 -9 19 -16 23 -16 13 0 32 26 24 33 -3 4 -1 7 5 7 7 0 12 -6 12 -14z
m-111 -33 c-1 -24 -3 -29 -6 -15 -5 23 -32 31 -34 10 0 -10 -2 -10 -6 0 -8 19
-21 14 -26 -10 -3 -17 -5 -15 -6 9 -1 25 3 32 22 36 54 10 57 9 56 -30z m45
-29 c3 -8 2 -12 -4 -9 -6 3 -10 10 -10 16 0 14 7 11 14 -7z m-89 -36 c6 0 18
3 28 7 10 4 17 3 17 -3 0 -6 -9 -14 -20 -17 -23 -7 -27 -25 -5 -25 8 0 15 -4
15 -10 0 -5 -10 -9 -22 -9 -13 1 -31 -2 -40 -6 -11 -4 -18 -3 -18 3 0 6 9 14
20 17 11 3 20 10 20 15 0 5 -9 12 -20 15 -11 3 -20 11 -20 17 0 6 7 7 18 3 9
-4 22 -7 27 -7z m85 -19 c0 -5 -4 -9 -8 -9 -5 0 -9 7 -9 15 0 8 4 12 9 9 4 -3
8 -9 8 -15z m-732 -68 c16 6 22 5 22 -5 0 -8 -10 -17 -22 -20 l-23 -7 23 -11
c33 -16 27 -24 -18 -23 -40 0 -53 11 -25 21 21 8 19 21 -5 27 -11 3 -20 10
-20 16 0 7 8 7 23 2 12 -5 32 -5 45 0z m-159 -32 c-13 -24 -12 -29 7 -29 9 0
12 5 8 12 -5 7 -3 8 6 3 8 -5 18 -2 25 9 11 15 13 15 19 1 3 -9 2 -13 -3 -10
-6 3 -14 -2 -19 -11 -5 -9 -12 -15 -15 -15 -21 3 -28 0 -22 -9 3 -5 1 -10 -4
-10 -6 0 -12 6 -13 13 -6 47 -4 64 8 64 9 0 10 -5 3 -18z m71 -49 c0 -5 -2
-10 -4 -10 -3 0 -8 5 -11 10 -3 6 -1 10 4 10 6 0 11 -4 11 -10z m-25 -20 c-3
-5 -10 -10 -16 -10 -5 0 -9 5 -9 10 0 6 7 10 16 10 8 0 12 -4 9 -10z m92 -12
c4 10 9 8 19 -5 12 -17 13 -16 14 7 2 25 2 25 12 -3 13 -37 7 -41 -39 -30 -30
7 -39 14 -41 33 -3 25 -2 25 14 5 12 -15 18 -16 21 -7z m-61 -33 c0 -45 -9
-58 -20 -29 -3 8 -2 12 4 9 13 -8 13 11 -1 37 -8 15 -8 19 0 14 6 -4 11 -2 11
3 0 6 1 11 3 11 2 0 4 -20 3 -45z m603 -109 c-2 -85 -8 -158 -12 -163 -11 -10
-368 -16 -384 -6 -7 5 -14 65 -18 166 l-8 157 213 0 212 0 -3 -154z m-675 129
c-4 -8 -8 -15 -10 -15 -2 0 -4 7 -4 15 0 8 4 15 10 15 5 0 7 -7 4 -15z m41
-25 c-3 -5 -10 -10 -16 -10 -5 0 -9 5 -9 10 0 6 7 10 16 10 8 0 12 -4 9 -10z
m111 -40 c43 0 45 -15 2 -18 -18 -2 -36 -8 -40 -15 -4 -7 -7 6 -7 28 1 22 3
32 6 23 3 -13 15 -18 39 -18z m-96 -44 c0 -11 -19 -15 -25 -6 -3 5 1 10 9 10
9 0 16 -2 16 -4z m140 -116 c0 -13 -50 -13 -70 0 -11 7 -4 10 28 10 23 0 42
-4 42 -10z m0 -55 c0 -22 -4 -25 -39 -25 -22 0 -43 5 -46 10 -4 6 10 10 34 10
30 0 41 4 41 15 0 8 2 15 5 15 3 0 5 -11 5 -25z"/>
</g>
</svg>
